<svg width="28" height="28" viewBox="0 0 28 28" fill="none" xmlns="http://www.w3.org/2000/svg">
<path d="M3.72742e-06 21.793V7.67287C3.68474e-06 6.87388 -0.00130053 6.18396 0.0449256 5.61818C0.0925983 5.03506 0.198475 4.45279 0.484379 3.89162C0.910162 3.05594 1.58919 2.37607 2.42481 1.95021C2.98611 1.66422 3.56909 1.55842 4.15235 1.51076C4.71814 1.46453 5.40803 1.46584 6.20704 1.46584H11.7959C12.6242 1.46584 13.2957 2.13755 13.2959 2.96584C13.2959 3.79427 12.6243 4.46584 11.7959 4.46584H6.20704C5.35852 4.46584 4.81178 4.46706 4.39649 4.501C3.99895 4.5335 3.85503 4.58846 3.78711 4.62307C3.51593 4.76124 3.29544 4.98184 3.15723 5.25295C3.12261 5.32089 3.06766 5.46552 3.03516 5.8633C3.00126 6.27854 3 6.82462 3 7.67287V21.793C3 22.6415 3.00123 23.1882 3.03516 23.6035C3.06766 24.0011 3.12262 24.145 3.15723 24.2129C3.29542 24.4841 3.51588 24.7046 3.78711 24.8428C3.855 24.8774 3.99899 24.9324 4.39649 24.9649C4.81176 24.9988 5.35852 25 6.20704 25H20.3272C21.1754 25 21.7215 24.9988 22.1367 24.9649C22.534 24.9324 22.6782 24.8774 22.7461 24.8428H22.7471C23.0183 24.7045 23.2389 24.4839 23.377 24.2129C23.4116 24.1449 23.4665 24.0009 23.499 23.6035C23.533 23.1882 23.5342 22.6415 23.5342 21.793V15.4688C23.5342 14.6403 24.2058 13.9688 25.0342 13.9688C25.8625 13.9689 26.5342 14.6404 26.5342 15.4688V21.793C26.5342 22.592 26.5355 23.2819 26.4893 23.8477C26.4476 24.3581 26.3609 24.8678 26.1484 25.3633L26.0498 25.5752C25.6239 26.411 24.944 27.0899 24.1084 27.5156C23.5472 27.8016 22.9649 27.9074 22.3818 27.9551C21.816 28.0013 21.1262 28 20.3272 28H6.20704C5.40803 28 4.71816 28.0013 4.15235 27.9551C3.56906 27.9074 2.98614 27.8017 2.42481 27.5156C1.58937 27.0899 0.910156 26.4106 0.484379 25.5752C0.198394 25.0139 0.0925877 24.4309 0.0449256 23.8477C-0.00130114 23.2819 3.72742e-06 22.592 3.72742e-06 21.793ZM20.165 1.3008C21.8995 -0.433628 24.7118 -0.433572 26.4463 1.3008C28.181 3.03542 28.181 5.84841 26.4463 7.58303L16.3535 17.6758C15.2698 18.7597 14.6044 19.4322 13.833 19.9707C13.1702 20.4336 12.4555 20.8165 11.7041 21.1123C10.8287 21.457 9.90043 21.6392 8.39844 21.9424H8.39746L7.67969 22.0869C7.20216 22.1831 6.70767 22.0415 6.35352 21.7071C5.99932 21.3725 5.82955 20.8866 5.89844 20.4043L5.96875 19.916C6.20766 18.2438 6.34786 17.2102 6.6875 16.2344C6.97912 15.3965 7.37792 14.6001 7.87305 13.8643C8.4499 13.0071 9.19225 12.2746 10.3867 11.0801L20.165 1.3008ZM12.5078 13.2012C11.2328 14.4762 10.7396 14.9785 10.3623 15.5391C10.0109 16.0613 9.72834 16.6264 9.52149 17.2207C9.38422 17.6151 9.29374 18.032 9.18262 18.7139C9.84417 18.5699 10.236 18.4668 10.6055 18.3213C11.1391 18.1112 11.6456 17.8387 12.1152 17.5108H12.1162C12.6207 17.1586 13.0761 16.7112 14.2324 15.5547V15.5537L20.4531 9.33205L18.4141 7.29299L12.5078 13.2012ZM24.3252 3.42189C23.7623 2.85918 22.8491 2.85896 22.2861 3.42189L20.5352 5.17189L22.5742 7.21096L24.3252 5.46096C24.8882 4.89793 24.8883 3.98491 24.3252 3.42189Z" fill="black"/>
</svg>
